<svg width="48" height="49" viewBox="0 0 48 49" fill="none" xmlns="http://www.w3.org/2000/svg">
<path fill-rule="evenodd" clip-rule="evenodd" d="M24 5.07562C12.95 5.07562 4 14.0256 4 25.0756C4 33.9256 9.725 41.4006 17.675 44.0506C18.675 44.2256 19.05 43.6256 19.05 43.1006C19.05 42.6256 19.025 41.0506 19.025 39.3756C14 40.3006 12.7 38.1506 12.3 37.0256C12.075 36.4506 11.1 34.6756 10.25 34.2006C9.55 33.8256 8.55 32.9006 10.225 32.8756C11.8 32.8506 12.925 34.3256 13.3 34.9256C15.1 37.9506 17.975 37.1006 19.125 36.5756C19.3 35.2756 19.825 34.4006 20.4 33.9006C15.95 33.4006 11.3 31.6756 11.3 24.0256C11.3 21.8506 12.075 20.0506 13.35 18.6506C13.15 18.1506 12.45 16.1006 13.55 13.3506C13.55 13.3506 15.225 12.8256 19.05 15.4006C20.65 14.9506 22.35 14.7256 24.05 14.7256C25.75 14.7256 27.45 14.9506 29.05 15.4006C32.875 12.8006 34.55 13.3506 34.55 13.3506C35.65 16.1006 34.95 18.1506 34.75 18.6506C36.025 20.0506 36.8 21.8256 36.8 24.0256C36.8 31.7006 32.125 33.4006 27.675 33.9006C28.4 34.5256 29.025 35.7256 29.025 37.6006C29.025 40.2756 29 42.4256 29 43.1006C29 43.6256 29.375 44.2506 30.375 44.0506C34.3454 42.7103 37.7954 40.1586 40.2396 36.7547C42.6838 33.3508 43.9989 29.2661 44 25.0756C44 14.0256 35.05 5.07562 24 5.07562Z" fill="#4B4755" fill-opacity="0.85"/>
</svg>
