<svg width="48" height="49" viewBox="0 0 48 49" fill="none" xmlns="http://www.w3.org/2000/svg">
<path d="M42 9.22927V39.9352C42 40.6372 41.7211 41.3105 41.2247 41.8069C40.7283 42.3033 40.055 42.5822 39.3529 42.5822H8.64706C7.94502 42.5822 7.27173 42.3033 6.77531 41.8069C6.27889 41.3105 6 40.6372 6 39.9352V9.22927C6 8.52723 6.27889 7.85394 6.77531 7.35752C7.27173 6.8611 7.94502 6.58221 8.64706 6.58221H39.3529C40.055 6.58221 40.7283 6.8611 41.2247 7.35752C41.7211 7.85394 42 8.52723 42 9.22927ZM16.5882 20.3469H11.2941V37.2881H16.5882V20.3469ZM17.0647 14.5234C17.0675 14.1229 16.9914 13.7258 16.8407 13.3548C16.69 12.9838 16.4677 12.646 16.1866 12.3609C15.9054 12.0758 15.5707 11.8488 15.2018 11.693C14.8329 11.5372 14.4369 11.4556 14.0365 11.4528H13.9412C13.1268 11.4528 12.3458 11.7763 11.7699 12.3522C11.1941 12.928 10.8706 13.709 10.8706 14.5234C10.8706 15.3378 11.1941 16.1188 11.7699 16.6946C12.3458 17.2705 13.1268 17.594 13.9412 17.594C14.3417 17.6038 14.7402 17.5347 15.1139 17.3905C15.4877 17.2463 15.8293 17.0298 16.1194 16.7535C16.4095 16.4772 16.6423 16.1465 16.8045 15.7801C16.9667 15.4138 17.0551 15.0192 17.0647 14.6187V14.5234ZM36.7059 26.9963C36.7059 21.9034 33.4659 19.9234 30.2471 19.9234C29.1932 19.8706 28.1438 20.0951 27.2037 20.5744C26.2637 21.0538 25.4657 21.7712 24.8894 22.6552H24.7412V20.3469H19.7647V37.2881H25.0588V28.2775C24.9823 27.3547 25.273 26.4389 25.8678 25.7292C26.4625 25.0194 27.3133 24.573 28.2353 24.4869H28.4365C30.12 24.4869 31.3694 25.5457 31.3694 28.214V37.2881H36.6635L36.7059 26.9963Z" fill="#4B4755" fill-opacity="0.85"/>
</svg>
