<svg width="171" height="131" viewBox="0 0 171 131" fill="none" xmlns="http://www.w3.org/2000/svg">
<rect x="75" y="67.7474" width="31" height="98" rx="15.5" transform="rotate(-50 75 67.7474)" fill="#4B4755"/>
<rect x="150.152" y="1.64685" width="31" height="98" rx="15.5" transform="rotate(50 150.152 1.64685)" fill="#4B4755"/>
<circle cx="50" cy="65" r="50" fill="#A5C2AA"/>
<mask id="path-4-inside-1_130_98" fill="white">
<path d="M80 15.5C80 6.93958 86.9396 0 95.5 0V0C104.06 0 111 6.93959 111 15.5V114.5C111 123.06 104.06 130 95.5 130V130C86.9396 130 80 123.06 80 114.5V15.5Z"/>
</mask>
<path d="M80 15.5C80 6.93958 86.9396 0 95.5 0V0C104.06 0 111 6.93959 111 15.5V114.5C111 123.06 104.06 130 95.5 130V130C86.9396 130 80 123.06 80 114.5V15.5Z" fill="#A5C2AA"/>
<path d="M80 0H111H80ZM111 130H80H111ZM80 130V0V130ZM95.5 0C109.583 0 121 11.4167 121 25.5V104.5C121 118.583 109.583 130 95.5 130C98.5376 130 101 123.06 101 114.5V15.5C101 6.93959 98.5376 0 95.5 0Z" fill="#4B4755" mask="url(#path-4-inside-1_130_98)"/>
</svg>
